<?xml version="1.0" encoding="UTF-8"?>
<svg width="156px" height="145px" viewBox="0 0 156 145" version="1.1" xmlns="http://www.w3.org/2000/svg" xmlns:xlink="http://www.w3.org/1999/xlink">
    <!-- Generator: Sketch 50 (54983) - http://www.bohemiancoding.com/sketch -->
    <title>Group 8</title>
    <desc>Created with Sketch.</desc>
    <defs></defs>
    <g id="Symbols" stroke="none" stroke-width="1" fill="none" fill-rule="evenodd">
        <g id="Element/Footer" transform="translate(-1124.000000, -251.000000)">
            <g id="Group-8">
                <g transform="translate(1124.000000, 251.000000)">
                    <path d="M55,0 L121,0 C138.673112,-3.24649801e-15 153,14.326888 153,32 L153,80 L23,80 L23,32 C23,14.326888 37.326888,3.24649801e-15 55,0 Z" id="Rectangle-11" fill="#CFD6E6"></path>
                    <rect id="Rectangle-18" fill="#B8C0D0" x="91" y="33" width="62" height="47"></rect>
                    <rect id="Rectangle-15" fill="#1E344D" x="76" y="85" width="26" height="60"></rect>
                    <rect id="Rectangle-15-Copy" fill="#233D59" x="92" y="85" width="10" height="60"></rect>
                    <path d="M95.0443479,121.820899 C93.0012519,116.954421 91.8806282,132.158077 94.9331117,139.424964 C98.2230791,147.257218 107.809097,149.456694 109.3372,141.672935 C115.714702,136.535957 109.001667,133.700678 103.524167,130.409464 C100.409943,128.538249 96.2393498,124.667289 95.0443479,121.820899 Z" id="Path-44-Copy-2" fill="#02AD8A" transform="translate(102.491469, 133.700249) scale(-1, -1) rotate(607.000000) translate(-102.491469, -133.700249) "></path>
                    <path d="M61.8037975,132.416404 C71.4446065,131.326243 75.3309466,141.406615 81.5400179,141.828821 C87.7490892,142.251028 93.5443387,135.541203 95.4995155,130.922466 C94.7639116,123.877371 86.7134161,121.934277 77.0425519,122.259223 C67.3716876,122.584169 52.1629885,133.506565 61.8037975,132.416404 Z" id="Path-42-Copy-2" fill="#1AC4A1" transform="translate(77.111827, 132.036549) rotate(38.000000) translate(-77.111827, -132.036549) "></path>
                    <rect id="Rectangle-15-Copy-2" fill-opacity="0.182603034" fill="#4F250B" x="76" y="85" width="26" height="6"></rect>
                    <path d="M57,2 L57,2 C74.673112,2 89,16.326888 89,34 L89,80 L25,80 L25,34 C25,16.326888 39.326888,2 57,2 Z" id="Rectangle-11-Copy" fill="#223346"></path>
                    <path d="M57,2 C39.326888,2 25,16.326888 25,34 L25,80 L39.1427143,80.2781921 L39.1427143,31.6352473 C39.1427143,13.9621353 45.3992309,7.09020474 57,2 Z" id="Rectangle-11-Copy-2" fill="#2B425C"></path>
                    <g id="Group-3" transform="translate(0.000000, 9.000000)">
                        <polygon id="Rectangle-12" fill="#0353B2" points="0 20 32 4 64 20 64 60 0 60"></polygon>
                        <rect id="Rectangle-20" fill="#FFFFFF" x="7" y="0" width="50" height="56" rx="4"></rect>
                        <rect id="Rectangle-14" fill="#E2E5EB" x="13" y="5" width="20" height="2" rx="1"></rect>
                        <rect id="Rectangle-14-Copy" fill="#E2E5EB" x="13" y="13" width="38" height="2" rx="1"></rect>
                        <rect id="Rectangle-14-Copy-2" fill="#E2E5EB" x="13" y="18" width="38" height="2" rx="1"></rect>
                        <rect id="Rectangle-14-Copy-3" fill="#E2E5EB" x="13" y="23" width="38" height="2" rx="1"></rect>
                        <rect id="Rectangle-14-Copy-4" fill="#E2E5EB" x="13" y="28" width="38" height="2" rx="1"></rect>
                        <rect id="Rectangle-14-Copy-5" fill="#E2E5EB" x="13" y="33" width="38" height="2" rx="1"></rect>
                        <polygon id="Rectangle-12" fill="#006EF1" points="64 20 64 60 0 60"></polygon>
                        <polygon id="Rectangle-12" fill="#2487FC" points="0 20 64 60 0 60"></polygon>
                    </g>
                    <rect id="Rectangle-13" fill="#9FA9BE" x="23" y="78" width="133" height="8" rx="4"></rect>
                    <rect id="Rectangle-13-Copy" fill="#CFD6E6" x="0" y="78" width="88" height="8" rx="4"></rect>
                </g>
            </g>
        </g>
    </g>
</svg>